<svg xmlns="http://www.w3.org/2000/svg" width="760" height="420" viewBox="0 0 760 420">
<rect width="100%" height="100%" fill="#fffdf8"/>
<text x="72" y="28" font-family="Georgia, serif" font-size="20" fill="#2b2b2b">Heavy-tailed / count_gt</text>
<line x1="72" y1="364" x2="736" y2="364" stroke="#555" stroke-width="1.2"/>
<line x1="72" y1="48" x2="72" y2="364" stroke="#555" stroke-width="1.2"/>
<line x1="72" y1="48" x2="72" y2="364" stroke="#ece7dc" stroke-width="1"/>
<text x="72" y="388" text-anchor="middle" font-family="Menlo, monospace" font-size="12" fill="#444">1</text>
<line x1="166.857" y1="48" x2="166.857" y2="364" stroke="#ece7dc" stroke-width="1"/>
<text x="166.857" y="388" text-anchor="middle" font-family="Menlo, monospace" font-size="12" fill="#444">2</text>
<line x1="261.714" y1="48" x2="261.714" y2="364" stroke="#ece7dc" stroke-width="1"/>
<text x="261.714" y="388" text-anchor="middle" font-family="Menlo, monospace" font-size="12" fill="#444">3</text>
<line x1="356.571" y1="48" x2="356.571" y2="364" stroke="#ece7dc" stroke-width="1"/>
<text x="356.571" y="388" text-anchor="middle" font-family="Menlo, monospace" font-size="12" fill="#444">4</text>
<line x1="451.429" y1="48" x2="451.429" y2="364" stroke="#ece7dc" stroke-width="1"/>
<text x="451.429" y="388" text-anchor="middle" font-family="Menlo, monospace" font-size="12" fill="#444">5</text>
<line x1="546.286" y1="48" x2="546.286" y2="364" stroke="#ece7dc" stroke-width="1"/>
<text x="546.286" y="388" text-anchor="middle" font-family="Menlo, monospace" font-size="12" fill="#444">6</text>
<line x1="641.143" y1="48" x2="641.143" y2="364" stroke="#ece7dc" stroke-width="1"/>
<text x="641.143" y="388" text-anchor="middle" font-family="Menlo, monospace" font-size="12" fill="#444">7</text>
<line x1="736" y1="48" x2="736" y2="364" stroke="#ece7dc" stroke-width="1"/>
<text x="736" y="388" text-anchor="middle" font-family="Menlo, monospace" font-size="12" fill="#444">8</text>
<line x1="72" y1="48" x2="736" y2="48" stroke="#ece7dc" stroke-width="1"/>
<text x="62" y="52" text-anchor="end" font-family="Menlo, monospace" font-size="12" fill="#444">4.9e+07</text>
<line x1="72" y1="1e+02" x2="736" y2="1e+02" stroke="#ece7dc" stroke-width="1"/>
<text x="62" y="1e+02" text-anchor="end" font-family="Menlo, monospace" font-size="12" fill="#444">1.9e+01</text>
<line x1="72" y1="2e+02" x2="736" y2="2e+02" stroke="#ece7dc" stroke-width="1"/>
<text x="62" y="2e+02" text-anchor="end" font-family="Menlo, monospace" font-size="12" fill="#444">7.0e-06</text>
<line x1="72" y1="3e+02" x2="736" y2="3e+02" stroke="#ece7dc" stroke-width="1"/>
<text x="62" y="3e+02" text-anchor="end" font-family="Menlo, monospace" font-size="12" fill="#444">2.7e-12</text>
<line x1="72" y1="4e+02" x2="736" y2="4e+02" stroke="#ece7dc" stroke-width="1"/>
<text x="62" y="4e+02" text-anchor="end" font-family="Menlo, monospace" font-size="12" fill="#444">1.0e-18</text>
<polyline fill="none" stroke="#c45d2c" stroke-width="2.5" points="72.00,48.00 166.86,48.85 261.71,54.47 356.57,70.95 451.43,96.03 546.29,124.45 641.14,364.00 736.00,364.00 "/>
<polyline fill="none" stroke="#176087" stroke-width="2.5" stroke-dasharray="8 6" points="72.00,48.00 166.86,48.85 261.71,54.09 356.57,70.65 451.43,95.81 546.29,124.45 641.14,364.00 736.00,364.00 "/>
<text x="84" y="64" font-family="Menlo, monospace" font-size="12" fill="#c45d2c">empirical abs error</text>
<text x="292" y="64" font-family="Menlo, monospace" font-size="12" fill="#176087">analytic bound</text>
<text x="404" y="408" text-anchor="middle" font-family="Menlo, monospace" font-size="12" fill="#444">top-k subcolumns kept</text>
<text x="18" y="206" transform="rotate(-90 18 206)" text-anchor="middle" font-family="Menlo, monospace" font-size="12" fill="#444">absolute error (log scale)</text>
</svg>
